<svg xmlns="http://www.w3.org/2000/svg" viewBox="0 0 48.5 60" xml:space="preserve">
  <path fill="#1B3251" d="M45.85 2.55v54.8H2.65V2.55z"/>
  <path fill="#FFF" d="M43.2 5h-38v50h38V5zM30.4 30.9c-.5 2.8-2.9 5-5.8 5s-5.4-2.2-5.8-5h11.6zM31.3 7v6.1H17.2V7h14.1zM18.8 29c.5-2.8 2.9-5 5.8-5s5.4 2.2 5.8 5H18.8zm13.3 0c-.5-3.8-3.6-6.7-7.5-6.7s-7.1 2.9-7.5 6.7H7.3V7h8v8h17.9V7h8.1v22h-9.2zM7.3 30.9h9.8c.5 3.8 3.6 6.7 7.5 6.7s7.1-2.9 7.5-6.7h9.2v22h-8.1V45H15.3v7.9h-8v-22zm24 22.1H17.2v-6h14.1v6z"/>
</svg>