<svg width="20" height="14" viewBox="0 0 33 24" fill="#5CA6FF" xmlns="http://www.w3.org/2000/svg">
    <path d="M31.6809 5.5999C31.6809 5.5999 31.3679 3.3939 30.4059 2.4249C29.1869 1.1499 27.8249 1.1439 27.1999 1.0689C22.7249 0.743896 16.0059 0.743896 16.0059 0.743896H15.9939C15.9939 0.743896 9.27486 0.743896 4.79986 1.0689C4.17486 1.1439 2.81286 1.1499 1.59386 2.4249C0.630859 3.3939 0.324859 5.5999 0.324859 5.5999C0.324859 5.5999 0.00585938 8.1879 0.00585938 10.7809V13.2059C0.00585938 15.7929 0.324859 18.3869 0.324859 18.3869C0.324859 18.3869 0.637859 20.5929 1.59386 21.5619C2.81286 22.8369 4.41286 22.7929 5.12486 22.9309C7.68786 23.1749 16.0059 23.2499 16.0059 23.2499C16.0059 23.2499 22.7309 23.2379 27.2059 22.9189C27.8309 22.8439 29.1939 22.8379 30.4119 21.5629C31.3739 20.5939 31.6869 18.3879 31.6869 18.3879C31.6869 18.3879 32.0059 15.8009 32.0059 13.2069V10.7819C31.9999 8.1939 31.6809 5.6009 31.6809 5.6009V5.5999ZM12.6939 16.1499V7.1559L21.3379 11.6689L12.6939 16.1499Z" fill="#5CA6FF"/>
</svg>