<svg xmlns="http://www.w3.org/2000/svg" viewBox="0 0 15 15"><defs><style>.a{fill:#1b3251}</style></defs><path class="a" d="M15 7.5A7.5 7.5 0 1 1 7.5 0 7.49 7.49 0 0 1 15 7.5Z"/><circle cx="6.425" cy="6.425" r="6.425" transform="translate(1.075 1.075)" style="fill:#fff"/><path class="a" d="m5.8 6.975.65 2h2.1l.65-2L7.5 5.75Zm1.7-4.8A5.325 5.325 0 1 0 12.825 7.5 5.313 5.313 0 0 0 7.5 2.175Zm1.85 7.875-.6 1.9a5.029 5.029 0 0 1-1.25.175 5.2 5.2 0 0 1-1.25-.175l-.625-1.9h-2a4.785 4.785 0 0 1-.775-2.375L4.45 6.5l-.625-1.9A4.534 4.534 0 0 1 5.85 3.15l1.6 1.175 1.6-1.175a4.733 4.733 0 0 1 2.025 1.45L10.5 6.525 12.1 7.7a4.406 4.406 0 0 1-.775 2.375H9.35Z"/></svg>