<svg width="20" height="20" viewBox="0 0 32 32" fill="#5CA6FF" xmlns="http://www.w3.org/2000/svg">
    <path d="M16 2.88102C20.275 2.88102 20.781 2.90002 22.462 2.97502C24.025 3.04402 24.868 3.30602 25.431 3.52502C26.175 3.81302 26.712 4.16302 27.268 4.71902C27.831 5.28202 28.174 5.81302 28.468 6.55702C28.687 7.12002 28.949 7.96902 29.018 9.52602C29.093 11.214 29.112 11.72 29.112 15.989C29.112 20.258 29.093 20.77 29.018 22.452C28.949 24.015 28.687 24.858 28.468 25.421C28.18 26.165 27.831 26.702 27.274 27.258C26.711 27.821 26.18 28.164 25.437 28.458C24.874 28.677 24.024 28.939 22.468 29.008C20.78 29.083 20.274 29.102 16.005 29.102C11.736 29.102 11.224 29.083 9.542 29.008C7.979 28.939 7.136 28.677 6.573 28.458C5.829 28.17 5.292 27.821 4.735 27.264C4.172 26.701 3.829 26.17 3.535 25.427C3.316 24.864 3.054 24.014 2.985 22.458C2.91 20.77 2.891 20.264 2.891 15.995C2.891 11.726 2.91 11.214 2.985 9.53202C3.054 7.96902 3.316 7.12602 3.535 6.56302C3.823 5.81902 4.173 5.28202 4.729 4.72502C5.292 4.16202 5.823 3.81902 6.567 3.52502C7.13 3.30602 7.979 3.04402 9.536 2.97502C11.217 2.90002 11.724 2.88102 15.999 2.88102H16ZM16 2.34375e-05C11.656 2.34375e-05 11.113 0.0190234 9.406 0.0940234C7.706 0.169023 6.537 0.444023 5.525 0.838023C4.469 1.25002 3.575 1.79402 2.688 2.68802C1.794 3.57602 1.25 4.46902 0.838 5.51902C0.444 6.53802 0.169 7.70002 0.094 9.40002C0.019 11.113 0 11.656 0 16C0 20.344 0.019 20.887 0.094 22.594C0.169 24.294 0.444 25.463 0.838 26.475C1.251 27.531 1.794 28.425 2.688 29.312C3.575 30.199 4.469 30.75 5.519 31.156C6.538 31.55 7.7 31.825 9.4 31.9C11.106 31.975 11.65 31.994 15.994 31.994C20.338 31.994 20.882 31.975 22.588 31.9C24.288 31.825 25.457 31.55 26.469 31.156C27.519 30.75 28.413 30.2 29.3 29.312C30.187 28.424 30.738 27.531 31.144 26.481C31.538 25.462 31.813 24.3 31.888 22.6C31.963 20.894 31.982 20.35 31.982 16.006C31.982 11.662 31.963 11.119 31.888 9.41202C31.813 7.71202 31.538 6.54302 31.144 5.53102C30.75 4.46802 30.206 3.57502 29.313 2.68702C28.426 1.80002 27.532 1.24902 26.482 0.843023C25.463 0.449023 24.301 0.174023 22.601 0.0990234C20.889 0.0180234 20.345 -0.000976562 16.001 -0.000976562L16 2.34375e-05Z" fill="#5CA6FF"/>
    <path d="M16 2.88102C20.275 2.88102 20.781 2.90002 22.462 2.97502C24.025 3.04402 24.868 3.30602 25.431 3.52502C26.175 3.81302 26.712 4.16302 27.268 4.71902C27.831 5.28202 28.174 5.81302 28.468 6.55702C28.687 7.12002 28.949 7.96902 29.018 9.52602C29.093 11.214 29.112 11.72 29.112 15.989C29.112 20.258 29.093 20.77 29.018 22.452C28.949 24.015 28.687 24.858 28.468 25.421C28.18 26.165 27.831 26.702 27.274 27.258C26.711 27.821 26.18 28.164 25.437 28.458C24.874 28.677 24.024 28.939 22.468 29.008C20.78 29.083 20.274 29.102 16.005 29.102C11.736 29.102 11.224 29.083 9.542 29.008C7.979 28.939 7.136 28.677 6.573 28.458C5.829 28.17 5.292 27.821 4.735 27.264C4.172 26.701 3.829 26.17 3.535 25.427C3.316 24.864 3.054 24.014 2.985 22.458C2.91 20.77 2.891 20.264 2.891 15.995C2.891 11.726 2.91 11.214 2.985 9.53202C3.054 7.96902 3.316 7.12602 3.535 6.56302C3.823 5.81902 4.173 5.28202 4.729 4.72502C5.292 4.16202 5.823 3.81902 6.567 3.52502C7.13 3.30602 7.979 3.04402 9.536 2.97502C11.217 2.90002 11.724 2.88102 15.999 2.88102H16ZM16 2.34375e-05C11.656 2.34375e-05 11.113 0.0190234 9.406 0.0940234C7.706 0.169023 6.537 0.444023 5.525 0.838023C4.469 1.25002 3.575 1.79402 2.688 2.68802C1.794 3.57602 1.25 4.46902 0.838 5.51902C0.444 6.53802 0.169 7.70002 0.094 9.40002C0.019 11.113 0 11.656 0 16C0 20.344 0.019 20.887 0.094 22.594C0.169 24.294 0.444 25.463 0.838 26.475C1.251 27.531 1.794 28.425 2.688 29.312C3.575 30.199 4.469 30.75 5.519 31.156C6.538 31.55 7.7 31.825 9.4 31.9C11.106 31.975 11.65 31.994 15.994 31.994C20.338 31.994 20.882 31.975 22.588 31.9C24.288 31.825 25.457 31.55 26.469 31.156C27.519 30.75 28.413 30.2 29.3 29.312C30.187 28.424 30.738 27.531 31.144 26.481C31.538 25.462 31.813 24.3 31.888 22.6C31.963 20.894 31.982 20.35 31.982 16.006C31.982 11.662 31.963 11.119 31.888 9.41202C31.813 7.71202 31.538 6.54302 31.144 5.53102C30.75 4.46802 30.206 3.57502 29.313 2.68702C28.426 1.80002 27.532 1.24902 26.482 0.843023C25.463 0.449023 24.301 0.174023 22.601 0.0990234C20.889 0.0180234 20.345 -0.000976562 16.001 -0.000976562L16 2.34375e-05Z" fill="#5CA6FF"/>
    <path d="M16 2.88102C20.275 2.88102 20.781 2.90002 22.462 2.97502C24.025 3.04402 24.868 3.30602 25.431 3.52502C26.175 3.81302 26.712 4.16302 27.268 4.71902C27.831 5.28202 28.174 5.81302 28.468 6.55702C28.687 7.12002 28.949 7.96902 29.018 9.52602C29.093 11.214 29.112 11.72 29.112 15.989C29.112 20.258 29.093 20.77 29.018 22.452C28.949 24.015 28.687 24.858 28.468 25.421C28.18 26.165 27.831 26.702 27.274 27.258C26.711 27.821 26.18 28.164 25.437 28.458C24.874 28.677 24.024 28.939 22.468 29.008C20.78 29.083 20.274 29.102 16.005 29.102C11.736 29.102 11.224 29.083 9.542 29.008C7.979 28.939 7.136 28.677 6.573 28.458C5.829 28.17 5.292 27.821 4.735 27.264C4.172 26.701 3.829 26.17 3.535 25.427C3.316 24.864 3.054 24.014 2.985 22.458C2.91 20.77 2.891 20.264 2.891 15.995C2.891 11.726 2.91 11.214 2.985 9.53202C3.054 7.96902 3.316 7.12602 3.535 6.56302C3.823 5.81902 4.173 5.28202 4.729 4.72502C5.292 4.16202 5.823 3.81902 6.567 3.52502C7.13 3.30602 7.979 3.04402 9.536 2.97502C11.217 2.90002 11.724 2.88102 15.999 2.88102H16ZM16 2.34375e-05C11.656 2.34375e-05 11.113 0.0190234 9.406 0.0940234C7.706 0.169023 6.537 0.444023 5.525 0.838023C4.469 1.25002 3.575 1.79402 2.688 2.68802C1.794 3.57602 1.25 4.46902 0.838 5.51902C0.444 6.53802 0.169 7.70002 0.094 9.40002C0.019 11.113 0 11.656 0 16C0 20.344 0.019 20.887 0.094 22.594C0.169 24.294 0.444 25.463 0.838 26.475C1.251 27.531 1.794 28.425 2.688 29.312C3.575 30.199 4.469 30.75 5.519 31.156C6.538 31.55 7.7 31.825 9.4 31.9C11.106 31.975 11.65 31.994 15.994 31.994C20.338 31.994 20.882 31.975 22.588 31.9C24.288 31.825 25.457 31.55 26.469 31.156C27.519 30.75 28.413 30.2 29.3 29.312C30.187 28.424 30.738 27.531 31.144 26.481C31.538 25.462 31.813 24.3 31.888 22.6C31.963 20.894 31.982 20.35 31.982 16.006C31.982 11.662 31.963 11.119 31.888 9.41202C31.813 7.71202 31.538 6.54302 31.144 5.53102C30.75 4.46802 30.206 3.57502 29.313 2.68702C28.426 1.80002 27.532 1.24902 26.482 0.843023C25.463 0.449023 24.301 0.174023 22.601 0.0990234C20.889 0.0180234 20.345 -0.000976562 16.001 -0.000976562L16 2.34375e-05Z" fill="#5CA6FF"/>
    <path d="M15.9998 7.78101C11.4628 7.78101 7.78076 11.462 7.78076 16C7.78076 20.538 11.4618 24.219 15.9998 24.219C20.5378 24.219 24.2188 20.538 24.2188 16C24.2188 11.463 20.5378 7.78101 15.9998 7.78101V7.78101ZM15.9998 21.331C13.0558 21.331 10.6688 18.944 10.6688 16C10.6688 13.056 13.0558 10.669 15.9998 10.669C18.9438 10.669 21.3308 13.056 21.3308 16C21.3308 18.944 18.9438 21.331 15.9998 21.331Z" fill="#5CA6FF"/>
    <path d="M26.462 7.45611C26.462 8.51611 25.603 9.37511 24.543 9.37511C23.483 9.37511 22.624 8.51611 22.624 7.45611C22.624 6.39611 23.483 5.53711 24.543 5.53711C25.603 5.53711 26.462 6.39611 26.462 7.45611V7.45611Z" fill="#5CA6FF"/>
</svg>
