<?xml version="1.0" encoding="UTF-8"?>
<svg id="LinkedIn_icon" xmlns="http://www.w3.org/2000/svg" version="1.1" viewBox="0 0 25 25">
  <!-- Generator: Adobe Illustrator 29.2.0, SVG Export Plug-In . SVG Version: 2.1.0 Build 108)  -->
  <defs>
    <style>
      .st0 {
        fill: #5ca5ff;
        fill-rule: evenodd;
      }
    </style>
  </defs>
  <path class="st0" d="M22.2,0H2.8C1.2,0,0,1.2,0,2.8v19.4c0,1.5,1.2,2.8,2.8,2.8h19.4c1.5,0,2.8-1.2,2.8-2.8V2.8c0-1.5-1.2-2.8-2.8-2.8ZM7.6,21.5h-3.7v-12h3.7v12ZM5.7,7.9c-1.2,0-2.2-1-2.2-2.2,0-1.2,1-2.2,2.2-2.2,1.2,0,2.2,1,2.2,2.2,0,0,0,0,0,0,0,1.2-1,2.2-2.2,2.2ZM21.5,21.5h-3.7v-6.3c0-1.7-.7-2.7-2-2.7s-2.3,1-2.3,2.7v6.3h-3.6v-12h3.6v1.6c.8-1.3,2.2-2,3.6-2,2.6,0,4.4,1.6,4.4,4.8v7.6Z"/>
</svg>