<svg width="32" height="32" viewBox="0 0 32 32" fill="#5CA6FF" xmlns="http://www.w3.org/2000/svg">
    <path d="M4.259 23.467C1.909 23.467 0 25.384 0 27.719C0 30.068 1.909 31.963 4.259 31.963C6.617 31.963 8.524 30.068 8.524 27.719C8.524 25.383 6.617 23.467 4.259 23.467V23.467ZM0.005 10.873V17.006C3.998 17.006 7.754 18.568 10.582 21.397C13.407 24.219 14.966 27.992 14.966 32H21.126C21.126 20.349 11.648 10.873 0.005 10.873V10.873ZM0.012 0V6.136C14.255 6.136 25.848 17.74 25.848 32H32C32 14.36 17.648 0 0.012 0V0Z" fill="#5CA6FF"/>
</svg>
